<svg width="818" height="818" viewBox="0 0 818 818" fill="none" xmlns="http://www.w3.org/2000/svg">
<rect x="9" y="9" width="800" height="800" rx="100" stroke="white" stroke-width="18"/>
<path d="M500.233 185H318.767C283.298 185.027 249.29 199.128 224.209 224.208C199.129 249.287 185.027 283.294 185 318.761V500.218C185.022 535.689 199.121 569.702 224.202 594.785C249.283 619.869 283.295 633.973 318.767 634H500.233C535.704 633.968 569.712 619.862 594.792 594.779C619.872 569.697 633.973 535.688 634 500.218V318.761C633.984 283.29 619.885 249.277 594.803 224.196C569.72 199.114 535.705 185.016 500.233 185ZM588.853 500.218C588.848 523.719 579.509 546.256 562.891 562.874C546.272 579.491 523.735 588.829 500.233 588.835H318.767C307.13 588.835 295.608 586.542 284.857 582.089C274.106 577.635 264.338 571.107 256.11 562.878C247.883 554.649 241.357 544.88 236.906 534.129C232.454 523.378 230.165 511.855 230.167 500.218V318.761C230.165 307.126 232.455 295.604 236.906 284.854C241.358 274.104 247.884 264.336 256.112 256.108C264.339 247.881 274.108 241.355 284.858 236.904C295.609 232.452 307.131 230.163 318.767 230.165H500.233C523.729 230.171 546.262 239.507 562.876 256.12C579.491 272.734 588.827 295.266 588.833 318.761L588.853 500.218Z" fill="white"/>
<path d="M409.991 292.946C346 292.946 294 344.983 294 408.973C294 472.963 346.02 525 409.991 525C473.961 525 525.981 472.963 525.981 408.973C525.981 344.983 473.981 292.946 409.991 292.946ZM409.991 479.858C391.197 479.861 373.171 472.395 359.88 459.104C346.589 445.812 339.12 427.783 339.118 408.983C339.115 390.184 346.578 372.153 359.866 358.857C373.153 345.562 391.176 338.091 409.97 338.088C428.764 338.086 446.789 345.551 460.081 358.843C473.372 372.134 480.84 390.163 480.843 408.963C480.846 427.763 473.383 445.794 460.095 459.089C446.808 472.385 428.785 479.855 409.991 479.858ZM526.226 266C531.721 266.004 537.092 267.638 541.66 270.694C546.228 273.751 549.787 278.093 551.888 283.173C553.989 288.252 554.538 293.841 553.465 299.232C552.392 304.624 549.745 309.576 545.859 313.463C541.973 317.35 537.023 319.998 531.633 321.071C526.243 322.145 520.656 321.596 515.578 319.494C510.5 317.392 506.159 313.832 503.104 309.263C500.048 304.693 498.415 299.321 498.411 293.824C498.411 278.484 508.811 266 526.226 266Z" fill="white"/>
</svg>
